<?xml version="1.0" encoding="UTF-8"?>
<svg xmlns="http://www.w3.org/2000/svg" viewBox="0 0 180 45" width="180" height="45">
  <rect x="2" y="2" width="176" height="41" rx="6" fill="#f8f9fa" stroke="#ced4da" stroke-width="1.5"></rect>
  <path d="M2 8C2 4.7 4.7 2 8 2h4v41H8c-3.3 0-6-2.7-6-6V8z" fill="#198754"></path>
  <g transform="translate(20, 13)">
    <path d="M12 7V5c0-2.8-2.2-5-5-5S2 2.2 2 5v2H0v12h14V7h-2zM4 5c0-1.7 1.3-3 3-3s3 1.3 3 3v2H4V5zm4 9.3V16H6v-1.7c-.6-.3-1-.9-1-1.6 0-1.1.9-2 2-2s2 .9 2 2c0 .7-.4 1.3-1 1.6z" fill="#198754"></path>
  </g>
  <text x="45" y="22" font-family="Arial, Helvetica, sans-serif" font-size="12" font-weight="bold" fill="#212529">SSL CERTIFIED</text>
  <text x="45" y="35" font-family="Arial, Helvetica, sans-serif" font-size="10" fill="#6c757d">256-Bit Encryption</text>
</svg>
